<?xml version="1.0" standalone="no"?>
<!DOCTYPE svg PUBLIC "-//W3C//DTD SVG 20010904//EN"
 "http://www.w3.org/TR/2001/REC-SVG-20010904/DTD/svg10.dtd">
<svg version="1.0" xmlns="http://www.w3.org/2000/svg"
 width="378.000000pt" height="466.000000pt" viewBox="0 0 378.000000 466.000000"
 preserveAspectRatio="xMidYMid meet">
<metadata>
Created by potrace 1.15, written by Peter Selinger 2001-2017
</metadata>
<g transform="translate(0.000000,466.000000) scale(0.100000,-0.100000)"
fill="#000000" stroke="none">
<path d="M1435 4639 c-403 -28 -907 -113 -1290 -218 -159 -43 -149 -20 -142
-336 20 -891 246 -1836 622 -2600 302 -614 650 -1052 1109 -1394 136 -102 151
-103 258 -32 504 339 974 968 1288 1721 301 723 491 1650 490 2400 -1 213 7
202 -190 253 -422 110 -886 184 -1295 207 -210 11 -678 11 -850 -1z m970 -398
c337 -33 821 -113 919 -153 45 -18 54 -55 45 -188 -46 -662 -192 -1311 -430
-1913 l-42 -109 -423 423 c-233 233 -420 427 -416 431 4 4 66 14 137 23 224
27 360 77 465 172 101 91 146 250 106 371 -33 97 -131 183 -264 232 -163 59
-179 60 -1163 60 -845 0 -899 1 -907 18 -6 9 -15 89 -21 177 -7 88 -14 175
-16 193 -6 46 13 90 45 107 35 18 329 77 545 109 148 22 388 47 565 60 104 7
745 -3 855 -13z m-448 -844 c197 -42 283 -124 271 -258 -7 -74 -48 -126 -128
-166 -104 -51 -200 -63 -519 -63 -152 0 -286 -3 -298 -6 -15 -4 -23 -14 -23
-28 0 -14 237 -258 777 -798 l777 -777 -88 30 c-48 17 -89 29 -91 27 -1 -2
-35 -55 -76 -118 -134 -212 -253 -364 -413 -529 -163 -167 -242 -233 -269
-225 -57 17 -306 265 -451 448 -440 553 -777 1360 -933 2233 l-27 155 -46 23
c-25 13 -65 35 -90 49 l-45 26 795 -3 c707 -3 804 -5 877 -20z"/>
</g>
</svg>
